<?xml version="1.0" encoding="UTF-8" standalone="no"?>
<!-- Created with Inkscape (http://www.inkscape.org/) -->

<svg
   xmlns:dc="http://purl.org/dc/elements/1.1/"
   xmlns:cc="http://creativecommons.org/ns#"
   xmlns:rdf="http://www.w3.org/1999/02/22-rdf-syntax-ns#"
   xmlns:svg="http://www.w3.org/2000/svg"
   xmlns="http://www.w3.org/2000/svg"
   version="1.2"
   width="1777.5"
   height="2655"
   viewBox="0 0 1777.5 2655.0002"
   id="Layer_1"
   xml:space="preserve"
   style="display:inline"><metadata
   id="metadata83"><rdf:RDF><cc:Work
       rdf:about=""><dc:format>image/svg+xml</dc:format><dc:type
         rdf:resource="http://purl.org/dc/dcmitype/StillImage" /><dc:title></dc:title></cc:Work></rdf:RDF></metadata><defs
   id="defs81" />






































<g
   transform="translate(0,1.0388889e-4)"
   id="layer4"
   style="display:inline"><rect
     width="1777.5001"
     height="2655.0002"
     x="-6.6949149e-05"
     y="-0.00014802952"
     id="rect3980"
     style="fill:#0057a8;fill-opacity:1" /></g><g
   transform="translate(0,1.0388889e-4)"
   id="layer1"
   style="display:inline"><text
   x="881.97858"
   y="941.5708"
   transform="scale(0.99155415,1.0085178)"
   id="text3131"
   xml:space="preserve"
   style="font-size:43.34558868px;font-style:normal;font-weight:bold;line-height:100%;letter-spacing:12.15412617;word-spacing:0;fill:#ffffff;fill-opacity:1;stroke:none;font-family:Sans;-inkscape-font-specification:Garamond Bold"><tspan
     x="882.47308"
     y="941.5708"
     dx="0"
     id="tspan3133"
     style="font-size:445.0249939px;font-style:normal;font-variant:normal;font-weight:bold;font-stretch:normal;text-align:center;line-height:100%;letter-spacing:0.98894423;text-anchor:middle;fill:#ffffff;fill-opacity:1;font-family:Garamond;-inkscape-font-specification:Garamond Bold">KEEP</tspan><tspan
     x="882.47308"
     y="1386.5958"
     dx="0 0 12.78705"
     dy="0 0 -0.089005001"
     id="tspan3135"
     style="font-size:445.0249939px;font-style:normal;font-variant:normal;font-weight:bold;font-stretch:normal;text-align:center;line-height:100%;letter-spacing:0.98894423;text-anchor:middle;fill:#ffffff;fill-opacity:1;font-family:Garamond;-inkscape-font-specification:Garamond Bold">CALM</tspan><tspan
     x="882.47302"
     y="1642.2233"
     id="tspan3137"
     style="font-size:197.78886414px;font-style:normal;font-variant:normal;font-weight:bold;font-stretch:normal;text-align:center;line-height:100%;letter-spacing:0.98894423;text-anchor:middle;fill:#ffffff;fill-opacity:1;font-family:Garamond;-inkscape-font-specification:Garamond Bold">AND</tspan><tspan
     x="882.47302"
     y="2029.4097"
     id="tspan3141"
     style="font-size:445.0249939px;font-style:normal;font-variant:normal;font-weight:bold;font-stretch:normal;text-align:center;line-height:100%;letter-spacing:0.98894423;text-anchor:middle;fill:#ffffff;fill-opacity:1;font-family:Garamond;-inkscape-font-specification:Garamond Bold"><tspan
       dx="0 0 0 0 -0.019778885"
       id="tspan3159"
       style="font-size:445.0249939px;font-style:normal;font-variant:normal;font-weight:bold;font-stretch:normal;text-align:center;line-height:100%;letter-spacing:0.98894423;text-anchor:middle;fill:#ffffff;fill-opacity:1;font-family:Garamond;-inkscape-font-specification:Garamond Bold">STUDY</tspan></tspan><tspan
     x="882.47302"
     y="2474.4346"
     id="tspan3161"
     style="font-size:445.0249939px;font-style:normal;font-variant:normal;font-weight:bold;font-stretch:normal;text-align:center;line-height:100%;letter-spacing:0.98894423;text-anchor:middle;fill:#ffffff;fill-opacity:1;font-family:Garamond;-inkscape-font-specification:Garamond Bold">ON</tspan></text>

<flowRoot
   transform="translate(-3.3474576e-5,0)"
   id="flowRoot3143"
   xml:space="preserve"
   style="font-size:40px;font-style:normal;font-weight:normal;line-height:125%;letter-spacing:0;word-spacing:0;fill:#000000;fill-opacity:1;stroke:none;font-family:Sans"><flowRegion
     id="flowRegion3145"><rect
       width="175.33194"
       height="96.734863"
       x="1475.2067"
       y="2286.1982"
       id="rect3147" /></flowRegion><flowPara
     id="flowPara3149" /></flowRoot><rect
   width="1583.4519"
   height="2204.7144"
   x="97.024048"
   y="450.28568"
   id="rect3977"
   style="fill:#0057a8;fill-opacity:0" /></g><g
   transform="matrix(24.905675,0,0,22.871962,101.16426,1926.0673)"
   id="g3083"
   style="fill:#ffffff;fill-opacity:1"><g
     transform="matrix(0.68063872,0,0,0.68063872,15.566587,-81.972511)"
     id="g3363"
     style="fill:#ffffff;fill-opacity:1"><path
       d="m 40.143835,14.661453 c -0.353,-2.052 -2.011,-3.48 -4.04,-3.644 -3.625,-0.292 -6.754,1.647 -10.271,2.269 -0.282,0.049 -0.66,-0.55 -1.001,-0.892 1.631,-1.229 1.409,-3.639 -0.48,-4.68 -0.13,-0.149 -0.083,-1.537 -0.008,-1.6 0.154,-0.128 1.359,0.104 1.53,-0.046 0.171,-0.147 0.137,-1.592 0.027,-1.731 -0.109,-0.139 -1.467,0.01 -1.544,-0.083 -0.076,-0.094 0.038,-1.394 -0.09,-1.496 -0.091,-0.073 -0.468,-0.081 -0.677,-0.079 -0.21,-0.002 -0.587,0.006 -0.678,0.079 -0.128,0.103 -0.014,1.402 -0.09,1.496 -0.077,0.093 -1.434,-0.056 -1.544,0.083 -0.109,0.139 -0.143,1.584 0.028,1.732 0.171,0.149 1.375,-0.082 1.529,0.046 0.074,0.063 0.122,1.45 -0.008,1.6 -1.889,1.041 -2.11,3.45 -0.479,4.68 -0.342,0.342 -0.72,0.94 -1.002,0.892 -3.516,-0.621 -6.645,-2.561 -10.27,-2.269 -2.0289999,0.163 -3.6869999,1.592 -4.0399999,3.644 -0.635,3.695 2.02,6.535 3.3079999,9.671 0.408,0.99 0.766,2.321 0.701,3.466 0,0 10.527,0 12.402,0.001 0,0 0.05,0 0.143,0 0.093,0 0.143,0 0.143,0 1.875,-0.001 12.401,-0.001 12.401,-0.001 -0.064,-1.145 0.294,-2.476 0.702,-3.466 1.288,-3.136 3.943,-5.976 3.308,-9.672 m -18.054,8.182 c -0.326,1.855 -1.357,3.033 -2.214,3.04 -0.562,0.003 -1.014,-0.211 -1.423,-0.57 -0.565,-0.494 -1.026,-1.307 -0.878,-1.787 0.125,-0.162 1.646,0.07 1.754,-0.081 0.109,-0.15 -0.185,-1.336 -0.357,-1.49 -0.171,-0.151 -1.545,0.053 -1.729,-0.098 -0.183,-0.151 -0.354,-1.619 -0.542,-1.709 0,0 -1.453,-0.217 -1.558,-0.011 -0.106,0.209 0.49,1.435 0.388,1.643 -0.102,0.209 -2.025,-0.183 -2.059,0.033 -0.034,0.217 0.11,1.296 0.295,1.456 0.184,0.16 1.98,0.171 1.98,0.171 0.373,0.284 0.471,0.863 0.473,1.455 0.003,0.752 -0.582,1.14 -1.514,0.879 -1.738,-0.487 -3.893,-4.257 -5.1719999,-6.867 -0.94,-1.919 -1.507,-5.059 0.9609999,-6 1.503,-0.574 3.081,-0.249 4.7,0.231 1.695,0.504 3.931,1.185 5.249,2.004 0.323,0.2 -0.385,0.04 0.784,2.631 0.544,1.206 1.089,3.775 0.862,5.07 m 10.384,2.931 c -0.932,0.261 -1.517,-0.127 -1.514,-0.879 0.002,-0.592 0.099,-1.171 0.473,-1.455 0,0 1.796,-0.011 1.98,-0.171 0.184,-0.16 0.328,-1.239 0.295,-1.456 -0.034,-0.216 -1.958,0.176 -2.059,-0.033 -0.102,-0.208 0.494,-1.434 0.388,-1.643 -0.107,-0.206 -1.558,0.011 -1.558,0.011 -0.188,0.09 -0.359,1.558 -0.543,1.709 -0.184,0.15 -1.557,-0.054 -1.728,0.098 -0.173,0.154 -0.465,1.34 -0.358,1.49 0.108,0.151 1.629,-0.081 1.755,0.081 0.147,0.48 -0.313,1.293 -0.878,1.787 -0.41,0.359 -0.861,0.573 -1.423,0.57 -0.858,-0.007 -1.888,-1.185 -2.214,-3.04 -0.228,-1.295 0.318,-3.864 0.861,-5.07 1.17,-2.591 0.461,-2.431 0.784,-2.631 1.319,-0.819 3.555,-1.5 5.25,-2.004 1.618,-0.48 3.196,-0.806 4.701,-0.231 2.467,0.941 1.899,4.081 0.959,6 -1.278,2.61 -3.433,6.379 -5.171,6.867"
       id="path75"
       style="fill:#ffffff;fill-opacity:1" /><a
       transform="translate(3.4008351,-1.322547)"
       id="a3080"
       style="fill:#ffffff;fill-opacity:1"><path
         d="m 7.362,30.839 0,2.179 12.684,0 0.286,0 12.684,0 0,-2.179 -12.684,0 -0.286,0 z"
         id="polygon77"
         style="fill:#ffffff;fill-opacity:1" /></a></g></g><g
   transform="translate(0,1.0388889e-4)"
   id="layer3" /></svg>